<svg xmlns="http://www.w3.org/2000/svg" width="68.034" height="71.086" viewBox="0 0 68.034 71.086"><defs><style>.a{fill:#fff;}</style></defs><g transform="translate(-10.768)"><path class="a" d="M38.374,68.985l-13.26,6.854,13.924,6.789,13.273-6.687Z" transform="translate(-12.313 -59.207)"/><path class="a" d="M10.768,293.316V308.23l13.812,6.312V299.78Z" transform="translate(0 -251.742)"/><path class="a" d="M10.768,143.4v16.526l13.812,6.495V149.851Z" transform="translate(0 -123.073)"/><path class="a" d="M138.217,367.648l13.826,6.34v-14.61l-13.827-6.454Z" transform="translate(-109.385 -302.903)"/><path class="a" d="M392.678,149.4v16.568l13.9-6.47V142.831Z" transform="translate(-327.779 -122.587)"/><path class="a" d="M165.225,14.382,178.95,7.467,165.344,0,151.237,7.377Z" transform="translate(-120.559)"/><path class="a" d="M310.5,76.1l-13.875-6.823-13.549,6.886,13.184,6.526Z" transform="translate(-233.709 -59.454)"/><path class="a" d="M171.057,134.592,158,141.228l13.149,5.8,12.835-5.986Z" transform="translate(-126.363 -115.515)"/><path class="a" d="M265.768,226.178l13.736-6.416V203.194l-13.736,6.416Z" transform="translate(-218.857 -174.394)"/><path class="a" d="M392.677,299.881v14.761l13.9-6.35v-14.9Z" transform="translate(-327.779 -251.805)"/><path class="a" d="M138.217,219.493l13.826,6.454V209.379l-13.826-6.454Z" transform="translate(-109.385 -174.163)"/><path class="a" d="M265.767,374.22l13.736-6.3V353.194l-13.736,6.416Z" transform="translate(-218.856 -303.134)"/></g></svg>