<svg xmlns="http://www.w3.org/2000/svg" width="95.839" height="71.086" viewBox="0 0 95.839 71.086"><defs><style>.a{fill:#fff;}</style></defs><path class="a" d="M310.106,179.763a2.808,2.808,0,0,1-.352-5.593c8.872-1.13,16.817-3.535,22.372-6.771,5.08-2.959,7.876-6.438,7.876-9.8,0-3.7-3.273-6.728-6.019-8.618a2.808,2.808,0,0,1,3.183-4.626c5.529,3.8,8.452,8.383,8.452,13.245,0,5.518-3.687,10.583-10.664,14.647-6.28,3.659-14.748,6.249-24.489,7.49A2.983,2.983,0,0,1,310.106,179.763Zm0,0" transform="translate(-249.779 -116.935)"/><path class="a" d="M47.235,170.723l-7.487-7.487a2.808,2.808,0,1,0-3.971,3.97l2.188,2.188c-8.388-.866-16.009-2.819-21.909-5.657-6.634-3.19-10.439-7.255-10.439-11.151,0-3.3,2.724-6.739,7.671-9.671a2.808,2.808,0,1,0-2.863-4.831C1.808,143.19,0,148.788,0,152.586c0,6.23,4.838,11.987,13.621,16.212,6.818,3.278,15.637,5.474,25.244,6.323l-3.089,3.089a2.808,2.808,0,0,0,3.971,3.971l7.487-7.487A2.809,2.809,0,0,0,47.235,170.723Zm0,0" transform="translate(0 -111.917)"/><path class="a" d="M105.36,108.307v-.676c0-2.383-1.459-2.845-3.415-2.845-1.209,0-1.6-1.067-1.6-2.134s.391-2.134,1.6-2.134c1.351,0,2.774-.178,2.774-3.059,0-2.063-1.174-2.561-2.632-2.561-1.742,0-2.632.427-2.632,1.814,0,1.209-.534,2.027-2.6,2.027-2.561,0-2.88-.534-2.88-2.241,0-2.773,1.991-6.366,8.108-6.366,4.517,0,7.931,1.636,7.931,6.437,0,2.6-.96,5.015-2.738,5.833a5.155,5.155,0,0,1,3.627,5.228v.676c0,5.833-4.019,8.038-9,8.038-6.117,0-8.464-3.734-8.464-6.722,0-1.6.676-2.028,2.632-2.028,2.276,0,2.845.5,2.845,1.85,0,1.672,1.565,2.063,3.165,2.063C104.506,111.508,105.36,110.619,105.36,108.307Zm0,0" transform="translate(-75.954 -73.261)"/><path class="a" d="M226.237,107.631v.32c0,6.117-3.806,8.393-8.714,8.393s-8.749-2.276-8.749-8.393V98.526c0-6.117,3.948-8.393,9.07-8.393,6.01,0,8.393,3.734,8.393,6.686,0,1.707-.818,2.24-2.6,2.24-1.529,0-2.881-.391-2.881-2.027,0-1.351-1.422-2.063-3.094-2.063-2.1,0-3.344,1.1-3.344,3.557v3.2a5.688,5.688,0,0,1,4.446-1.565C222.822,100.162,226.237,101.94,226.237,107.631Zm-11.915.711c0,2.454,1.209,3.521,3.2,3.521s3.165-1.067,3.165-3.521v-.32c0-2.6-1.174-3.592-3.2-3.592-1.92,0-3.165.925-3.165,3.272Zm0,0" transform="translate(-169.694 -73.261)"/><path class="a" d="M325.055,107.951V98.526c0-6.117,3.805-8.393,8.714-8.393s8.749,2.276,8.749,8.393v9.425c0,6.117-3.841,8.393-8.749,8.393S325.055,114.068,325.055,107.951Zm11.914-9.425c0-2.454-1.209-3.557-3.2-3.557s-3.165,1.1-3.165,3.557v9.425c0,2.454,1.174,3.557,3.165,3.557s3.2-1.1,3.2-3.557Zm0,0" transform="translate(-264.209 -73.261)"/><path class="a" d="M417.775,16.847A8.423,8.423,0,1,1,426.2,8.423,8.433,8.433,0,0,1,417.775,16.847Zm0-11.231a2.808,2.808,0,1,0,2.808,2.808A2.811,2.811,0,0,0,417.775,5.616Zm0,0" transform="translate(-332.727)"/></svg>