<svg xmlns="http://www.w3.org/2000/svg" width="217" height="231" viewBox="0 0 217 231"><defs><style>.a{fill:#e6b9a1;}.b{fill:#eaeaea;}</style></defs><circle class="a" cx="19.5" cy="19.5" r="19.5" transform="translate(68 50)"/><circle class="b" cx="19.5" cy="19.5" r="19.5" transform="translate(123 50)"/><circle class="b" cx="19.5" cy="19.5" r="19.5" transform="translate(39 96)"/><circle class="b" cx="19.5" cy="19.5" r="19.5" transform="translate(68 142)"/><circle class="a" cx="19.5" cy="19.5" r="19.5" transform="translate(123 142)"/><circle class="b" cx="19.5" cy="19.5" r="19.5" transform="translate(152 96)"/><circle class="b" cx="19.5" cy="19.5" r="19.5" transform="translate(0 70)"/><circle class="b" cx="19.5" cy="19.5" r="19.5" transform="translate(13 162)"/><circle class="b" cx="19.5" cy="19.5" r="19.5" transform="translate(88)"/><circle class="b" cx="19.5" cy="19.5" r="19.5" transform="translate(178 162)"/><circle class="b" cx="19.5" cy="19.5" r="19.5" transform="translate(88 192)"/><circle class="b" cx="19.5" cy="19.5" r="19.5" transform="translate(97 100)"/></svg>