<svg xmlns="http://www.w3.org/2000/svg" width="71.485" height="71.49" viewBox="0 0 71.485 71.49"><defs><style>.a{fill:#fff;}</style></defs><path class="a" d="M18.882,0A16.4,16.4,0,0,0,2.5,16.382v8.191a5.218,5.218,0,0,0,5.212,5.212h11.17A10.41,10.41,0,0,1,8.457,19.361c6.949,0,10.425-5.212,10.425-10.425,0,5.212,3.476,10.425,10.425,10.425A10.41,10.41,0,0,1,18.882,29.785h11.17a5.218,5.218,0,0,0,5.212-5.212V16.382A16.4,16.4,0,0,0,18.882,0Z" transform="translate(4.946)"/><path class="a" d="M47.616,24.081l-11.125-.628L32.458,12.462a2.236,2.236,0,0,0-4.194,0L24.232,23.453l-11.125.628a2.236,2.236,0,0,0-1.325,3.929l8.733,7.455-2.9,11.467a2.236,2.236,0,0,0,3.422,2.395l9.329-6.347,9.329,6.347a2.236,2.236,0,0,0,3.422-2.395l-2.9-11.467,8.733-7.455a2.236,2.236,0,0,0-1.325-3.929Z" transform="translate(21.76 21.77)"/><path class="a" d="M37.265,35.087c-6-5.129-10.422-7.527-8.62-12.888,1.847-5.457,7.235-4.626,14.166-5.019l.9-2.46A11.077,11.077,0,0,0,36.487,12H11.17A11.181,11.181,0,0,0,0,23.17V33.594a2.235,2.235,0,0,0,2.234,2.234H37.077Z" transform="translate(0 23.743)"/></svg>