<svg xmlns="http://www.w3.org/2000/svg" width="749.823" height="404.628" viewBox="0 0 749.823 404.628"><defs><style>.a,.b,.c,.d,.e{fill:#de6834;}.a,.l,.n{opacity:0.1;}.b{opacity:0.2;}.d{opacity:0.7;}.e{opacity:0.4;}.f{fill:#767d9f;}.g{fill:#ae6e79;}.h{fill:#4c4981;}.i{fill:#504f60;}.j{fill:#9c9ca1;}.k{opacity:0.05;}.m{fill:#fff;}.n{stroke:#4c4981;stroke-miterlimit:10;}.o{fill:#444053;}</style></defs><g transform="translate(0 -0.04)"><path class="a" d="M777.822,401.058a119.234,119.234,0,0,1-4.49,32.51,118.019,118.019,0,0,1-12.63,29.023c0,32.838-22.167,61.218-54.342,74.72a109.655,109.655,0,0,1-42.427,8.39H170.341a136.964,136.964,0,0,1-70.879-19.244,121.754,121.754,0,0,1-16.275-11.726c-22.285-19.152-36.1-45.619-36.1-74.851a118.655,118.655,0,0,1,50.1-172.387,114.38,114.38,0,0,1,16.72-5.978q3.035-.826,6.135-1.481a114.954,114.954,0,0,1,16.72-2.294q3.048-.19,6.128-.216h1.127c2.268,0,4.516.079,6.751.21l.734-1.245q1.35-2.255,2.766-4.464,2.556-4.024,5.361-7.931,2.936-4.123,6.128-8.114l.544-.655q1.809-2.255,3.7-4.457,5.9-6.876,12.453-13.338C229.711,171.2,303.756,141.38,387,141.38c64.771,0,123.976,18.057,169.326,47.893a114.164,114.164,0,0,1,56.328-14.806c64.063,0,116.013,52.678,116.013,117.658a121.208,121.208,0,0,1-.655,12.309A117.979,117.979,0,0,1,777.822,401.058Z" transform="translate(-28 -141.34)"/><path class="b" d="M257.113,257.52v13.338H244.66Q250.513,263.989,257.113,257.52Z" transform="translate(-102.653 -181.357)"/><rect class="b" width="16.72" height="16.72" transform="translate(160.595 72.781)"/><rect class="b" width="16.72" height="16.72" transform="translate(183.444 72.781)"/><rect class="b" width="16.72" height="16.72" transform="translate(206.299 72.781)"/><rect class="b" width="16.72" height="16.72" transform="translate(229.148 72.781)"/><rect class="b" width="16.72" height="16.72" transform="translate(252.003 72.781)"/><rect class="c" width="16.72" height="16.72" transform="translate(274.858 72.781)"/><rect class="b" width="16.72" height="16.72" transform="translate(297.707 72.781)"/><rect class="b" width="16.72" height="16.72" transform="translate(320.562 72.781)"/><rect class="b" width="16.72" height="16.72" transform="translate(343.41 72.781)"/><rect class="c" width="16.72" height="16.72" transform="translate(366.266 72.781)"/><rect class="b" width="16.72" height="16.72" transform="translate(389.121 72.781)"/><rect class="b" width="16.72" height="16.72" transform="translate(411.969 72.781)"/><rect class="b" width="16.72" height="16.72" transform="translate(434.824 72.781)"/><rect class="b" width="16.72" height="16.72" transform="translate(457.68 72.781)"/><rect class="b" width="16.72" height="16.72" transform="translate(480.528 72.781)"/><rect class="b" width="16.72" height="16.72" transform="translate(503.383 72.781)"/><rect class="c" width="16.72" height="16.72" transform="translate(526.232 72.781)"/><rect class="c" width="16.72" height="16.72" transform="translate(549.087 72.781)"/><rect class="b" width="16.72" height="16.72" transform="translate(571.942 72.781)"/><rect class="b" width="16.72" height="16.72" transform="translate(594.791 72.781)"/><rect class="c" width="16.72" height="16.72" transform="translate(617.646 72.781)"/><rect class="c" width="16.72" height="16.72" transform="translate(640.495 72.781)"/><path class="c" d="M225.981,298.08v7.931H220.62Q223.176,301.96,225.981,298.08Z" transform="translate(-94.37 -195.333)"/><rect class="b" width="16.72" height="16.72" transform="translate(137.74 93.958)"/><rect class="c" width="16.72" height="16.72" transform="translate(160.595 93.958)"/><rect class="b" width="16.72" height="16.72" transform="translate(183.444 93.958)"/><rect class="d" width="16.72" height="16.72" transform="translate(206.299 93.958)"/><rect class="b" width="16.72" height="16.72" transform="translate(229.148 93.958)"/><rect class="e" width="16.72" height="16.72" transform="translate(252.003 93.958)"/><rect class="c" width="16.72" height="16.72" transform="translate(274.858 93.958)"/><rect class="e" width="16.72" height="16.72" transform="translate(297.707 93.958)"/><rect class="b" width="16.72" height="16.72" transform="translate(320.562 93.958)"/><rect class="e" width="16.72" height="16.72" transform="translate(343.41 93.958)"/><rect class="c" width="16.72" height="16.72" transform="translate(366.266 93.958)"/><rect class="e" width="16.72" height="16.72" transform="translate(389.121 93.958)"/><rect class="e" width="16.72" height="16.72" transform="translate(411.969 93.958)"/><rect class="b" width="16.72" height="16.72" transform="translate(434.824 93.958)"/><rect class="e" width="16.72" height="16.72" transform="translate(457.68 93.958)"/><rect class="e" width="16.72" height="16.72" transform="translate(480.528 93.958)"/><rect class="b" width="16.72" height="16.72" transform="translate(503.383 93.958)"/><rect class="b" width="16.72" height="16.72" transform="translate(526.232 93.958)"/><rect class="e" width="16.72" height="16.72" transform="translate(549.087 93.958)"/><rect class="b" width="16.72" height="16.72" transform="translate(571.942 93.958)"/><rect class="c" width="16.72" height="16.72" transform="translate(594.791 93.958)"/><rect class="c" width="16.72" height="16.72" transform="translate(617.646 93.958)"/><rect class="c" width="16.72" height="16.72" transform="translate(640.495 93.958)"/><path class="b" d="M150.27,324.67v11.686H133.55v-5.709a114.384,114.384,0,0,1,16.72-5.978Z" transform="translate(-64.369 -204.495)"/><path class="b" d="M157.14,177.57v15.462H140.42V179.864Z" transform="translate(-48.383 -61.17)"/><rect class="c" width="16.72" height="16.72" transform="translate(114.885 115.142)"/><rect class="d" width="16.72" height="16.72" transform="translate(137.74 115.142)"/><rect class="c" width="16.72" height="16.72" transform="translate(160.595 115.142)"/><rect class="d" width="16.72" height="16.72" transform="translate(183.444 115.142)"/><rect class="d" width="16.72" height="16.72" transform="translate(206.299 115.142)"/><rect class="b" width="16.72" height="16.72" transform="translate(229.148 115.142)"/><rect class="e" width="16.72" height="16.72" transform="translate(252.003 115.142)"/><rect class="e" width="16.72" height="16.72" transform="translate(274.858 115.142)"/><rect class="c" width="16.72" height="16.72" transform="translate(297.707 115.142)"/><rect class="b" width="16.72" height="16.72" transform="translate(320.562 115.142)"/><rect class="e" width="16.72" height="16.72" transform="translate(343.41 115.142)"/><rect class="c" width="16.72" height="16.72" transform="translate(366.266 115.142)"/><rect class="b" width="16.72" height="16.72" transform="translate(389.121 115.142)"/><rect class="e" width="16.72" height="16.72" transform="translate(411.969 115.142)"/><rect class="b" width="16.72" height="16.72" transform="translate(434.824 115.142)"/><rect class="c" width="16.72" height="16.72" transform="translate(457.68 115.142)"/><rect class="b" width="16.72" height="16.72" transform="translate(480.528 115.142)"/><rect class="d" width="16.72" height="16.72" transform="translate(503.383 115.142)"/><rect class="d" width="16.72" height="16.72" transform="translate(526.232 115.142)"/><rect class="e" width="16.72" height="16.72" transform="translate(549.087 115.142)"/><rect class="b" width="16.72" height="16.72" transform="translate(571.942 115.142)"/><rect class="c" width="16.72" height="16.72" transform="translate(594.791 115.142)"/><rect class="c" width="16.72" height="16.72" transform="translate(617.646 115.142)"/><rect class="c" width="16.72" height="16.72" transform="translate(640.495 115.142)"/><rect class="b" width="16.72" height="16.72" transform="translate(69.181 136.319)"/><rect class="b" width="16.72" height="16.72" transform="translate(92.037 136.319)"/><rect class="b" width="16.72" height="16.72" transform="translate(114.885 136.319)"/><rect class="b" width="16.72" height="16.72" transform="translate(137.74 136.319)"/><rect class="c" width="16.72" height="16.72" transform="translate(160.595 136.319)"/><rect class="d" width="16.72" height="16.72" transform="translate(183.444 136.319)"/><rect class="d" width="16.72" height="16.72" transform="translate(206.299 136.319)"/><rect class="b" width="16.72" height="16.72" transform="translate(229.148 136.319)"/><rect class="b" width="16.72" height="16.72" transform="translate(252.003 136.319)"/><rect class="e" width="16.72" height="16.72" transform="translate(274.858 136.319)"/><rect class="e" width="16.72" height="16.72" transform="translate(297.707 136.319)"/><rect class="c" width="16.72" height="16.72" transform="translate(320.562 136.319)"/><rect class="b" width="16.72" height="16.72" transform="translate(343.41 136.319)"/><rect class="e" width="16.72" height="16.72" transform="translate(366.266 136.319)"/><rect class="e" width="16.72" height="16.72" transform="translate(389.121 136.319)"/><rect class="e" width="16.72" height="16.72" transform="translate(411.969 136.319)"/><rect class="e" width="16.72" height="16.72" transform="translate(434.824 136.319)"/><rect class="b" width="16.72" height="16.72" transform="translate(457.68 136.319)"/><rect class="b" width="16.72" height="16.72" transform="translate(480.528 136.319)"/><rect class="b" width="16.72" height="16.72" transform="translate(503.383 136.319)"/><rect class="b" width="16.72" height="16.72" transform="translate(526.232 136.319)"/><rect class="d" width="16.72" height="16.72" transform="translate(549.087 136.319)"/><rect class="d" width="16.72" height="16.72" transform="translate(571.942 136.319)"/><rect class="e" width="16.72" height="16.72" transform="translate(594.791 136.319)"/><rect class="b" width="16.72" height="16.72" transform="translate(617.646 136.319)"/><rect class="c" width="16.72" height="16.72" transform="translate(640.495 136.319)"/><rect class="b" width="16.72" height="16.72" transform="translate(69.181 157.503)"/><rect class="b" width="16.72" height="16.72" transform="translate(92.037 157.503)"/><rect class="e" width="16.72" height="16.72" transform="translate(114.885 157.503)"/><rect class="b" width="16.72" height="16.72" transform="translate(137.74 157.503)"/><rect class="b" width="16.72" height="16.72" transform="translate(160.595 157.503)"/><rect class="d" width="16.72" height="16.72" transform="translate(183.444 157.503)"/><rect class="d" width="16.72" height="16.72" transform="translate(206.299 157.503)"/><rect class="b" width="16.72" height="16.72" transform="translate(229.148 157.503)"/><rect class="b" width="16.72" height="16.72" transform="translate(252.003 157.503)"/><rect class="e" width="16.72" height="16.72" transform="translate(274.858 157.503)"/><rect class="c" width="16.72" height="16.72" transform="translate(297.707 157.503)"/><rect class="b" width="16.72" height="16.72" transform="translate(320.562 157.503)"/><rect class="c" width="16.72" height="16.72" transform="translate(343.41 157.503)"/><rect class="c" width="16.72" height="16.72" transform="translate(366.266 157.503)"/><rect class="c" width="16.72" height="16.72" transform="translate(389.121 157.503)"/><rect class="b" width="16.72" height="16.72" transform="translate(411.969 157.503)"/><rect class="c" width="16.72" height="16.72" transform="translate(434.824 157.503)"/><rect class="b" width="16.72" height="16.72" transform="translate(457.68 157.503)"/><rect class="b" width="16.72" height="16.72" transform="translate(480.528 157.503)"/><rect class="b" width="16.72" height="16.72" transform="translate(503.383 157.503)"/><rect class="b" width="16.72" height="16.72" transform="translate(526.232 157.503)"/><rect class="b" width="16.72" height="16.72" transform="translate(549.087 157.503)"/><rect class="d" width="16.72" height="16.72" transform="translate(571.942 157.503)"/><rect class="b" width="16.72" height="16.72" transform="translate(594.791 157.503)"/><rect class="b" width="16.72" height="16.72" transform="translate(617.646 157.503)"/><rect class="c" width="16.72" height="16.72" transform="translate(640.495 157.503)"/><rect class="b" width="16.72" height="16.72" transform="translate(69.181 178.68)"/><rect class="b" width="16.72" height="16.72" transform="translate(92.037 178.68)"/><rect class="b" width="16.72" height="16.72" transform="translate(114.885 178.68)"/><rect class="e" width="16.72" height="16.72" transform="translate(137.74 178.68)"/><rect class="b" width="16.72" height="16.72" transform="translate(160.595 178.68)"/><rect class="b" width="16.72" height="16.72" transform="translate(183.444 178.68)"/><rect class="d" width="16.72" height="16.72" transform="translate(206.299 178.68)"/><rect class="b" width="16.72" height="16.72" transform="translate(229.148 178.68)"/><rect class="b" width="16.72" height="16.72" transform="translate(252.003 178.68)"/><rect class="b" width="16.72" height="16.72" transform="translate(274.858 178.68)"/><rect class="c" width="16.72" height="16.72" transform="translate(297.707 178.68)"/><rect class="b" width="16.72" height="16.72" transform="translate(320.562 178.68)"/><rect class="c" width="16.72" height="16.72" transform="translate(343.41 178.68)"/><rect class="c" width="16.72" height="16.72" transform="translate(366.266 178.68)"/><rect class="b" width="16.72" height="16.72" transform="translate(389.121 178.68)"/><rect class="b" width="16.72" height="16.72" transform="translate(411.969 178.68)"/><rect class="b" width="16.72" height="16.72" transform="translate(434.824 178.68)"/><rect class="b" width="16.72" height="16.72" transform="translate(457.68 178.68)"/><rect class="b" width="16.72" height="16.72" transform="translate(480.528 178.68)"/><rect class="b" width="16.72" height="16.72" transform="translate(503.383 178.68)"/><rect class="b" width="16.72" height="16.72" transform="translate(526.232 178.68)"/><rect class="b" width="16.72" height="16.72" transform="translate(549.087 178.68)"/><rect class="b" width="16.72" height="16.72" transform="translate(571.942 178.68)"/><rect class="b" width="16.72" height="16.72" transform="translate(594.791 178.68)"/><rect class="e" width="16.72" height="16.72" transform="translate(617.646 178.68)"/><rect class="c" width="16.72" height="16.72" transform="translate(640.495 178.68)"/><rect class="d" width="16.72" height="16.72" transform="translate(69.181 199.864)"/><rect class="d" width="16.72" height="16.72" transform="translate(92.037 199.864)"/><rect class="d" width="16.72" height="16.72" transform="translate(114.885 199.864)"/><rect class="d" width="16.72" height="16.72" transform="translate(137.74 199.864)"/><rect class="d" width="16.72" height="16.72" transform="translate(160.595 199.864)"/><rect class="b" width="16.72" height="16.72" transform="translate(183.444 199.864)"/><rect class="b" width="16.72" height="16.72" transform="translate(206.299 199.864)"/><rect class="b" width="16.72" height="16.72" transform="translate(229.148 199.864)"/><rect class="b" width="16.72" height="16.72" transform="translate(252.003 199.864)"/><rect class="b" width="16.72" height="16.72" transform="translate(274.858 199.864)"/><rect class="b" width="16.72" height="16.72" transform="translate(297.707 199.864)"/><rect class="c" width="16.72" height="16.72" transform="translate(320.562 199.864)"/><rect class="b" width="16.72" height="16.72" transform="translate(343.41 199.864)"/><rect class="b" width="16.72" height="16.72" transform="translate(366.266 199.864)"/><rect class="b" width="16.72" height="16.72" transform="translate(389.121 199.864)"/><rect class="c" width="16.72" height="16.72" transform="translate(411.969 199.864)"/><rect class="b" width="16.72" height="16.72" transform="translate(434.824 199.864)"/><rect class="b" width="16.72" height="16.72" transform="translate(457.68 199.864)"/><rect class="b" width="16.72" height="16.72" transform="translate(480.528 199.864)"/><rect class="b" width="16.72" height="16.72" transform="translate(503.383 199.864)"/><rect class="b" width="16.72" height="16.72" transform="translate(526.232 199.864)"/><rect class="b" width="16.72" height="16.72" transform="translate(549.087 199.864)"/><rect class="b" width="16.72" height="16.72" transform="translate(571.942 199.864)"/><rect class="b" width="16.72" height="16.72" transform="translate(594.791 199.864)"/><rect class="b" width="16.72" height="16.72" transform="translate(617.646 199.864)"/><rect class="c" width="16.72" height="16.72" transform="translate(640.495 199.864)"/><circle class="f" cx="22.855" cy="22.855" r="22.855" transform="translate(458.578 215.666)"/><path class="g" d="M760.4,451.67q3.421,14.931,5.807,30.085c.479,3,.9,6.168-.184,9.006-.911,2.366-2.766,4.214-4.221,6.286s-2.556,4.726-1.671,7.1,3.467,3.67,5.932,4.339c7.052,1.9,14.57.518,21.59-1.54a34.93,34.93,0,0,0,9.052-3.749,33.872,33.872,0,0,0,7.656-7.21c10.231-12.407,16.93-27.3,23.235-42.1a25.641,25.641,0,0,1-21.7-8.744c-2.582-3.035-4.477-7.262-3.022-10.972-4.267,2.34-9.333,2.5-13.928,4.1a49.48,49.48,0,0,0-8.193,4.031q-4.706,2.72-9.36,5.545C767.848,449.979,764.525,451.88,760.4,451.67Z" transform="translate(-280.156 -242.224)"/><path class="f" d="M781.856,475.961c-4,7.793-9.216,15.285-16.655,19.925s-17.454,5.9-24.907,1.311c-3.67-2.242-6.45-5.65-9.655-8.521s-7.21-5.329-11.516-4.955c-4.745.413-8.462,4.116-11.641,7.662-4.824,5.388-9.484,11-12.9,17.382-6.554,12.257-8.108,26.585-7.819,40.48s2.3,27.718,2.346,41.614c.066,17.094-2.831,34.05-5.761,50.888,26.939-3.317,53.91,3.933,80.907,6.679,17.277,1.776,34.686,1.737,52.055,1.691,3.054,0,6.305-.079,8.848-1.77A11.928,11.928,0,0,0,828.825,644c2.4-4.424,3.362-9.471,4.031-14.459,1.7-12.6,1.75-25.352,1.8-38.068.118-30.806.229-61.723-3.684-92.286-.963-7.518-2.2-15.075-5.08-22.108s-7.59-13.5-14.171-17.271c-4.228-2.425-14.026-6.646-19.008-4.2C787.119,458.329,784.537,470.743,781.856,475.961Z" transform="translate(-253.808 -249.355)"/><path class="h" d="M833.675,560.117c-1.016-19.008-5.152-39.294,3.651-56.165,2.163-4.142-5.6-9.314-3.2-13.325a60.357,60.357,0,0,0,6.594-15.685,11.832,11.832,0,0,0,.426-5.8c-.872-3.467-4.3-5.532-7.21-7.642-3.212-2.333-4.863-9.445-5.9-13.292s8.239.787,11.968-.583c5.178-1.894,11.759-.7,16.923,1.219a28.249,28.249,0,0,0,9.091,1.232,119.78,119.78,0,0,0,17.887-.426,44.491,44.491,0,0,1,8-.688c6.823.387,12.755,5.053,16.792,10.572s6.607,11.949,9.917,17.926c2.759,4.981,6.05,9.687,8.4,14.872a91.542,91.542,0,0,1,4.706,14.42l3.362,12.578a16.766,16.766,0,0,1,.826,5.578,15.831,15.831,0,0,1-1.966,5.676,107.582,107.582,0,0,1-12.237,18.674c-7.072,8.671-15.658,16.491-19.86,26.873a67.893,67.893,0,0,0-3.382,12.63,464.043,464.043,0,0,0-7.144,51.878,114.183,114.183,0,0,0-23.937-8,116.4,116.4,0,0,0-12.453-1.966c-3.664-.38-8.39.341-11.877-.655-5.833-1.658-6.476-11.523-7.361-16.687a152.4,152.4,0,0,1-1.75-24.907C833.884,578.968,834.179,569.536,833.675,560.117Z" transform="translate(-303.634 -246.522)"/><path class="h" d="M611.48,560.888c2.759,15.731,5.8,31.507,11.8,46.287-.151.144-.3.275-.452.406-.531.452-1.082.878-1.658,1.311a22.079,22.079,0,0,0-3.933,2.976,5.245,5.245,0,0,0-.983,1.606,3.591,3.591,0,0,0,0,2.93c-3.126,1.383-6.758.957-10.264.826-3.021-.111-5.951,0-8.377,1.658-3.369,2.32-4.385,6.777-4.929,10.828q-.3,2.215-.518,4.437-.21,2.065-.341,4.142a123.629,123.629,0,0,0-.125,13.764q.052,1.258.138,2.517c-10.71-.256-20.469-5.84-29.7-11.267-2.11-1.239-4.286-2.543-5.656-4.588a10.356,10.356,0,0,1-1.514-6.744,7.45,7.45,0,0,1,.1-1,27.253,27.253,0,0,1,1.5-5.689,70.262,70.262,0,0,1,12.578-21.4c2.346-2.74,4.988-5.42,6.082-8.862.478-1.5.655-3.094,1.14-4.588,2.176-6.476,10.028-9.537,12.716-15.822a48,48,0,0,1,1.77-4.588,11.555,11.555,0,0,1,2.786-3.113c.479-.4.977-.787,1.468-1.173q6.908-5.414,13.312-11.437,1.193-1.121,2.36-2.268a38.987,38.987,0,0,0,.7,8.848Z" transform="translate(-209.545 -282.837)"/><path class="h" d="M706.927,487.052c-.944,1-1.966,1.934-2.969,2.864l-.269.242-1.062.983a25.563,25.563,0,0,0-4.948,5.761l-.112.184c-3.343,5.984-2.1,13.351-1.173,20.148a171.437,171.437,0,0,1,1.553,25.562c-.17,11.8-1.56,23.517-1.586,35.3q0,4.011.177,8.016c.19,4.346.518,8.685.911,13.024.426,4.758.937,9.51,1.416,14.262.38,3.677.741,7.347,1.042,11.018.151,1.9.295,3.795.413,5.7.138,2.228.249,4.463.315,6.692h0c.046,1.416.072,2.825.072,4.241v2.405q0,2.3-.125,4.588-.131,2.943-.4,5.9c-.2,2.143-.564,4.483-2.071,5.991-.092.092-.19.177-.288.262l-2.124-.262a218.08,218.08,0,0,0-44.111-.787c.321-2.215.616-4.424.9-6.646.131-1.049.262-2.1.387-3.159q.216-1.809.413-3.618.226-1.966.419-3.933.511-5.067.9-10.14.57-7.4.865-14.826.144-3.546.223-7.1.112-4.4.1-8.816,0-4.287-.072-8.586c0-.944-.039-1.888-.118-2.825a17.911,17.911,0,0,0-.347-2.51,32.693,32.693,0,0,0-1.966-5.558c-.144-.341-.282-.656-.419-1.016-.079-.177-.151-.36-.223-.537,3.775-3.362,6.463-7.865,9.045-12.3,4.188-7.138,8.475-14.59,9.176-22.836s-3.4-17.507-11.274-20.024a54.77,54.77,0,0,0-6.62-1.226c-2.084-.367-6.43-1.2-8.842-2.694q-1.966,2.019-3.933,3.965a14.517,14.517,0,0,1,1.422-5.709l.931.046a1.779,1.779,0,0,1-.1-.655,3.445,3.445,0,0,1,1.521-2.373c3.087-2.622,7.944-3.205,9.891-6.751.813-1.475.95-3.231,1.606-4.778,1.881-4.411,7.282-6.037,10.533-9.563s4.064-8.521,6.692-12.453a18.759,18.759,0,0,1,7.865-6.554c.262-.125.531-.249.8-.36,5.44-2.327,11.9-2.858,17.54-2.845,2.189,0,7.865.066,10.644,1.173a3.487,3.487,0,0,1,1.213.741C713.724,477.908,709.116,484.718,706.927,487.052Z" transform="translate(-238.944 -255.524)"/><path class="h" d="M636.27,541.8a39.9,39.9,0,0,1,30.635,3.192,28.977,28.977,0,0,1,11.549,11c3.9,7.079,3.729,15.613,3.454,23.694-.138,4.044-.315,8.232-2.1,11.863-2.065,4.2-5.958,7.085-9.93,9.445a27.685,27.685,0,0,1-8.075,3.493c-4.4.957-8.979.144-13.417-.655-4.824-.891-10-1.966-13.351-5.558-1.966-2.084-3.041-4.791-4.1-7.439q-2.288-5.735-4.588-11.457c-2.655-6.627-3.552-12.139-.046-18.595,1.593-2.943,3.539-5.7,5.112-8.658C632.2,550.615,635.018,542.186,636.27,541.8Z" transform="translate(-233.358 -278.725)"/><path class="i" d="M743.947,695.252v19.6a109.653,109.653,0,0,1-42.427,8.39H524.755c-.092.092-.19.177-.288.262l-2.124-.262H207.909A136.965,136.965,0,0,1,137.03,704V674.074L288.253,656.62h.118l88.065,7.459,22.79,1.966,11.837,1,24.5,2.078,12.6,1.068,18.352,1.56,2.582.216,13.227,1.121,17.946,1.475,25.234,2.137,42.066,3.572,29.593,2.51,48.594,4.123,9.242.78,1,.085.865.072,12.2,1.036,13.4,1.14,1.553.131Z" transform="translate(-65.568 -318.872)"/><path class="j" d="M660.511,556.116,471,523.77l-7.347,37.157,86.872,10.4,26.748,3.349,73.58-14.492Z" transform="translate(-159.756 -180.457)"/><path class="j" d="M642.33,730.527l94.947-17.848a3.277,3.277,0,0,1,3.893,3.231h0a3.277,3.277,0,0,1-2.681,3.231L645.764,736.5Z" transform="translate(-239.674 -338.167)"/><path class="g" d="M666.324,647.638a24.488,24.488,0,0,0,8.613-2.052c3.277-1.632,5.827-4.444,8.862-6.515,6.672-4.588,15.6-5.2,23.248-2.569s14.033,8.278,18.5,15.016c2.969,4.49,5.2,10.218,3.1,15.173a20,20,0,0,1-2.7,4.221l-5.466,7.144a19.008,19.008,0,0,1-3.71,3.992,15.764,15.764,0,0,1-7.092,2.464c-6.653.97-13.423.42-20.129.865-11.516.767-22.763,4.477-34.306,4.352-6.633-.072-13.181-1.409-19.663-2.746l-28.689-5.9c-4.995-1.022-10.638-2.517-12.991-7.046a16.336,16.336,0,0,1-1.376-6.692c-.341-6.318,0-13.345,4.378-17.9,4.116-4.273,10.625-5.624,15.54-8.783,6.017-3.874,8-2.622,14.347.288a78.654,78.654,0,0,0,39.53,6.685Z" transform="translate(-222.481 -311.403)"/><path class="k" d="M666.324,647.638a24.488,24.488,0,0,0,8.613-2.052c3.277-1.632,5.827-4.444,8.862-6.515,6.672-4.588,15.6-5.2,23.248-2.569s14.033,8.278,18.5,15.016c2.969,4.49,5.2,10.218,3.1,15.173a20,20,0,0,1-2.7,4.221l-5.466,7.144a19.008,19.008,0,0,1-3.71,3.992,15.764,15.764,0,0,1-7.092,2.464c-6.653.97-13.423.42-20.129.865-11.516.767-22.763,4.477-34.306,4.352-6.633-.072-13.181-1.409-19.663-2.746l-28.689-5.9c-4.995-1.022-10.638-2.517-12.991-7.046a16.336,16.336,0,0,1-1.376-6.692c-.341-6.318,0-13.345,4.378-17.9,4.116-4.273,10.625-5.624,15.54-8.783,6.017-3.874,8-2.622,14.347.288a78.654,78.654,0,0,0,39.53,6.685Z" transform="translate(-222.481 -311.403)"/><path class="g" d="M791.721,638.836c-8.049,3.113-16.143,6.24-24.572,8.095-14.131,3.113-28.918,2.622-42.938,6.181-7.406,1.888-14.767,4.929-22.377,4.313a67.06,67.06,0,0,1-10-2.1c-18.595-4.588-39.733-3.1-54.834,8.7a68.239,68.239,0,0,0-13.227,14.42,9.635,9.635,0,0,0,3.874,14.341,56.772,56.772,0,0,0,18.6,4.962c8.606.76,17.251-.459,25.811-1.678,12.7-1.8,25.411-3.611,38.081-5.637,4.549-.727,9.1-1.481,13.672-2.058,32.923-4.162,66.442.9,99.45-2.576a30.382,30.382,0,0,0,9.766-2.235c7.682-3.6,11.483-13.109,9.9-21.459s-7.708-15.291-15.075-19.552c-6.174-3.585-12.833-5.034-19.709-6.554C801.762,634.51,797.869,636.477,791.721,638.836Z" transform="translate(-232.671 -311.588)"/><path class="l" d="M943.533,549.746c3.631,4.758,4.4,11.142,4.011,17.1s-1.809,11.85-2.019,17.835c-.288,8.206,1.691,16.386,1.357,24.566a70.672,70.672,0,0,1-3.2,16.825c-1.894,6.482-4.634,13.45-10.618,16.563-7.944,4.136-24.605,1.809-32.962,5.047.76-4.739,8.049-11.6,8.809-16.34.524-3.277,1.055-6.646.492-9.93-.721-4.188-3.179-7.9-6.1-11a32.164,32.164,0,0,0-17.35-9.832c-6.653-1.206-22.94-.216-28.262,3.985-.655-4.339,11.536-8.521,15.822-9.458,2.137-.479,4.588-.21,6.3-1.567,3.277-2.569.9-7.688,1.055-11.8.125-3.277,2.038-6.279,2.425-9.556.655-5.244-2.766-10.585-1.422-15.731a40.8,40.8,0,0,1,2.373-5.381c2.333-5.539,1.311-11.857.065-17.743-.773-3.7-1.527-7.865.531-11.018,1.907-2.943,7.321,7.537,10.788,7.052,11.451-1.606,21.813-10.094,31.061-3.146,4.713,3.539,5.329,7.21,7.21,12.263C935.733,543.3,940.472,545.761,943.533,549.746Z" transform="translate(-313.873 -272.416)"/><path class="h" d="M946.533,547.416c3.631,4.758,4.4,11.142,4.011,17.1s-1.809,11.85-2.019,17.835c-.288,8.206,1.691,16.386,1.357,24.566a70.676,70.676,0,0,1-3.2,16.825c-1.894,6.482-4.634,13.45-10.618,16.563-7.944,4.136-24.605,1.809-32.962,5.047.76-4.739,8.049-11.6,8.809-16.34.524-3.277,1.055-6.646.492-9.93-.721-4.188-3.179-7.9-6.1-11a32.162,32.162,0,0,0-17.349-9.832c-6.652-1.206-22.94-.216-28.262,3.985-.655-4.339,11.536-8.521,15.822-9.458,2.137-.478,4.588-.21,6.3-1.567,3.277-2.569.9-7.688,1.055-11.8.125-3.277,2.038-6.279,2.425-9.556.655-5.244-2.766-10.585-1.422-15.731a40.844,40.844,0,0,1,2.373-5.381c2.333-5.539,1.311-11.857.066-17.743-.773-3.7-1.527-7.865.531-11.018,1.907-2.943,5.637-4.057,9.1-4.549a44.845,44.845,0,0,1,32.772,8.455c4.713,3.539,5.329,7.21,7.21,12.263C938.733,540.966,943.472,543.431,946.533,547.416Z" transform="translate(-314.906 -270.086)"/><path class="j" d="M329.849,505.432l35.636,131.7a8.226,8.226,0,0,0,7.151,6.037l160.4,15.409a8.219,8.219,0,0,0,8.77-10.146L502.78,489.571a8.219,8.219,0,0,0-8.6-6.233L337.144,495.083a8.219,8.219,0,0,0-7.3,10.349Z" transform="translate(-131.906 -259.157)"/><ellipse class="m" cx="17.631" cy="17.861" rx="17.631" ry="17.861" transform="translate(498.271 236.254)"/><path class="m" d="M832.652,479.162s3.716,11.051-7.249,15.7l-1.4,2.451,6.869,6.777s8.469-15.449,7.551-20.935C838.42,483.153,837.109,477.582,832.652,479.162Z" transform="translate(-302.271 -257.629)"/><circle class="c" cx="17.002" cy="17.002" r="17.002" transform="translate(500.925 237.971)"/><path class="c" d="M834.78,471.261l-2.7-4.457-3.933-.557c.839-14.675-2.969-19.047-2.969-19.047l-.885-.085-3.854-.374-7.249-7.524V437.08c10.186,1.213,15.816,6.05,18.857,11.719C837.422,458.749,834.78,471.261,834.78,471.261Z" transform="translate(-298.546 -243.227)"/><path class="n" d="M824.343,445.538v2.7l-3.854-.374-7.249-7.525S824.454,442.85,824.343,445.538Z" transform="translate(-298.563 -244.35)"/><path class="n" d="M844.71,477.436l-2.7-4.457V455C847.352,464.923,844.71,477.436,844.71,477.436Z" transform="translate(-308.476 -249.401)"/><ellipse class="m" cx="9.458" cy="17.251" rx="9.458" ry="17.251" transform="translate(461.07 236.813) rotate(-30)"/><path class="c" d="M751.3,508.958c4.765,8.252,10.612,13.764,6.089,16.386s-17.7,1.311-22.462-6.948-.439-19.663,4.083-22.285S746.53,500.687,751.3,508.958Z" transform="translate(-270.865 -263.378)"/><path class="l" d="M777.281,402.318c0,26.368-18.044,51.78-44.413,51.78a47.749,47.749,0,0,1,0-95.5C759.237,358.626,777.281,375.943,777.281,402.318Z" transform="translate(-254.418 -216.186)"/><circle class="g" cx="47.749" cy="47.749" r="47.749" transform="translate(430.702 141.13)"/><path class="o" d="M718.183,364.508c5.683,2.091,9.045,7.964,14.144,11.234,7.21,4.588,16.6,3.4,24.828,1.134,4.588-1.252,9.386-2.779,13.9-1.389a3.933,3.933,0,0,0,2.117.3c.983-.282,1.468-1.37,1.789-2.34,5.584-16.648,3.074-35.505-5.355-50.908-2.176-3.972-4.785-7.813-8.376-10.572a34.943,34.943,0,0,0-9.517-4.8,95.042,95.042,0,0,0-18.929-4.673,11.76,11.76,0,0,0-3.454-.111,14.466,14.466,0,0,0-4.4,1.868,45.081,45.081,0,0,1-19.571,5.316c-9.176.347-19.663-1.816-26.735,4.07-8.521,7.059-6.4,20.83-11.922,30.412-3.657,6.338-10.71,10.939-11.87,18.156a16.761,16.761,0,0,0,.413,6.6,26.857,26.857,0,0,0,24.907,19.906,9.452,9.452,0,0,0,5.086-1.042,11.5,11.5,0,0,0,2.681-2.55C695.42,376.227,704.006,359.291,718.183,364.508Z" transform="translate(-243.928 -196.787)"/><path class="l" d="M774.954,394.89c-.321.97-.806,2.058-1.789,2.34a3.933,3.933,0,0,1-2.117-.3c-4.516-1.39-9.34.138-13.9,1.389-8.239,2.268-17.644,3.48-24.828-1.134-5.106-3.277-8.462-9.176-14.151-11.234-14.177-5.244-22.763,11.719-30.288,20.607a11.5,11.5,0,0,1-2.681,2.55,9.451,9.451,0,0,1-5.086,1.042,26.927,26.927,0,0,1-24.907-19.906c-.151-.655-.282-1.311-.38-1.966a.318.318,0,0,1-.033.17,16.758,16.758,0,0,0,.413,6.6,26.864,26.864,0,0,0,24.907,19.906,9.451,9.451,0,0,0,5.086-1.042,11.5,11.5,0,0,0,2.681-2.55c7.524-8.888,16.111-25.824,30.288-20.607,5.689,2.091,9.045,7.964,14.151,11.234,7.21,4.588,16.589,3.4,24.828,1.134,4.588-1.252,9.379-2.779,13.9-1.39a3.933,3.933,0,0,0,2.117.3c.983-.282,1.468-1.37,1.789-2.34a59.179,59.179,0,0,0,2.936-21.144,58.2,58.2,0,0,1-2.936,16.34Z" transform="translate(-243.917 -223.06)"/></g></svg>