<svg xmlns="http://www.w3.org/2000/svg" width="71.086" height="71.086" viewBox="0 0 71.086 71.086"><defs><style>.a{fill:#fff;}</style></defs><path class="a" d="M153.149,33.164a16.582,16.582,0,1,0-16.582-16.582A16.6,16.6,0,0,0,153.149,33.164Zm-4.1-18.055,2.764,2.763,5.252-7a2.083,2.083,0,0,1,3.332,2.5L153.7,22.293a2.083,2.083,0,0,1-3.139.223L146.1,18.055A2.082,2.082,0,0,1,149.044,15.11Zm0,0" transform="translate(-117.606)"/><path class="a" d="M196.659,273.129H178.813a2.083,2.083,0,0,0-2.083,2.083v31.082h22.012V275.212A2.083,2.083,0,0,0,196.659,273.129Zm0,0" transform="translate(-152.193 -235.208)"/><path class="a" d="M15.319,96.026a7.66,7.66,0,1,1-7.66-7.659A7.659,7.659,0,0,1,15.319,96.026Zm0,0" transform="translate(0 -76.098)"/><path class="a" d="M416.983,96.026a7.66,7.66,0,1,1-7.66-7.659A7.659,7.659,0,0,1,416.983,96.026Zm0,0" transform="translate(-345.897 -76.098)"/><path class="a" d="M18.289,226.564H15.318V216.527a7.653,7.653,0,0,0-7.743-7.658A7.732,7.732,0,0,0,0,216.641v11.04a9.89,9.89,0,0,0,9.89,9.89h5.428v11.3a2.083,2.083,0,0,0,2.083,2.083h2.971V228.647A2.083,2.083,0,0,0,18.289,226.564Zm0,0" transform="translate(0 -179.869)"/><path class="a" d="M367.352,226.564h2.971V216.527a7.653,7.653,0,0,1,7.743-7.658,7.732,7.732,0,0,1,7.575,7.772v11.04a9.89,9.89,0,0,1-9.89,9.89h-5.428v11.3a2.083,2.083,0,0,1-2.083,2.083H365.27V228.647A2.083,2.083,0,0,1,367.352,226.564Zm0,0" transform="translate(-314.556 -179.869)"/></svg>